PathFileType	4	(x/y/z)	A01_T0012.trc
DataRate	CameraRate	NumFrames	NumMarkers	Units	OrigDataRate	OrigDataStartFrame	OrigNumFrames
240	240	5	47	mm	240	301	1200
Frame#	Time	R_AC			L_AC			R_ASIS			L_ASIS			R_PSIS			L_PSIS			R_GT			L_GT			R_IC			L_IC			SACRAL			R_THIGH_PROX_POST			L_THIGH_PROX_POST			R_THIGH_PROX_ANT			L_THIGH_PROX_ANT			R_THIGH_DIST_POST			L_THIGH_DIST_POST			R_THIGH_DIST_ANT			L_THIGH_DIST_ANT			R_LAT_KNEE			R_MED_KNEE			L_LAT_KNEE			L_MED_KNEE			L_PROS_PROX_ANT			L_PROS_PROX_POST			L_PROS_DIST_ANT			L_PROS_DIST_POST			R_LL_PROX_ANT			R_LL_PROX_POST			R_LL_DIST_POST			R_LL_DIST_ANT			R_LAT_ANK			R_MED_ANK			L_MED_ANK			L_LAT_ANK			L_TOE			R_TOE			L_5TH_MET			L_1ST_MET			R_1ST_MET			R_5TH_MET			R_HEEL_SUP			L_HEEL_SUP			R_HEEL_LAT			L_HEEL_LAT			L_HEEL_MED			R_HEEL_MED			
		X1	Y1	Z1	X2	Y2	Z2	X3	Y3	Z3	X4	Y4	Z4	X5	Y5	Z5	X6	Y6	Z6	X7	Y7	Z7	X8	Y8	Z8	X9	Y9	Z9	X10	Y10	Z10	X11	Y11	Z11	X12	Y12	Z12	X13	Y13	Z13	X14	Y14	Z14	X15	Y15	Z15	X16	Y16	Z16	X17	Y17	Z17	X18	Y18	Z18	X19	Y19	Z19	X20	Y20	Z20	X21	Y21	Z21	X22	Y22	Z22	X23	Y23	Z23	X24	Y24	Z24	X25	Y25	Z25	X26	Y26	Z26	X27	Y27	Z27	X28	Y28	Z28	X29	Y29	Z29	X30	Y30	Z30	X31	Y31	Z31	X32	Y32	Z32	X33	Y33	Z33	X34	Y34	Z34	X35	Y35	Z35	X36	Y36	Z36	X37	Y37	Z37	X38	Y38	Z38	X39	Y39	Z39	X40	Y40	Z40	X41	Y41	Z41	X42	Y42	Z42	X43	Y43	Z43	X44	Y44	Z44	X45	Y45	Z45	X46	Y46	Z46	X47	Y47	Z47	

301	1.251	590.91	1569.4	542.71	639.66	1586.6	122.52	696.36	1081.8	531.95	761.39	1068.8	177.94	506.15	1075.6	368.23	534.91	1089.8	242.15	632.54	967.87	554.61	712.77	977.98	122.01	636.86	1177	540.25	721.08	1171.6	136.28	506.54	1053.1	298.25	600.13	840.04	533.36	712.49	837.73	130.11	666.99	863.92	547.77	777.7	834.25	160.51	612.55	751.45	529.75	724.91	762.38	139.5	676.9	772.65	545.7	785.01	760.58	165.91	643.01	560.43	507.87	691.42	551.03	382.73	723.55	582.44	156.86	737	554.39	312.49	749.28	491.13	160.85	696.15	504.23	149.41	728.76	438.43	160.99	676.05	444.24	150.73	581.36	384.78	531.44	518.7	403.54	498.51	522.62	320.37	497.51	573.53	309.89	519.31	522.13	110.32	491.18	559.56	115.51	390.88	599.37	147.55	201.74	571.53	152.38	134.93	793.88	75.229	150.93	766.2	72.492	470.04	679.78	54.631	78.763	711.09	57.409	206.52	690.25	57.621	410.94	641.4	45.784	538.99	439.62	69.503	420.66	475.06	110.34	166.15	443.01	45.077	456.16	480.54	81.603	134.62	489.51	78.829	197.29	454.17	43.921	394.79
302	1.2552	590.94	1569.4	542.74	639.67	1586.6	122.55	696.39	1081.8	531.97	761.41	1068.8	177.95	506.17	1075.7	368.26	534.93	1089.8	242.17	632.57	967.87	554.63	712.78	977.99	122.02	636.9	1177	540.27	721.09	1171.6	136.3	506.56	1053.1	298.28	600.15	840.03	533.38	712.5	837.74	130.12	667.01	863.91	547.79	777.71	834.25	160.52	612.56	751.45	529.77	724.92	762.38	139.51	676.91	772.64	545.72	785.02	760.58	165.92	643.03	560.43	507.88	691.43	551.03	382.74	723.56	582.45	156.87	737.02	554.39	312.5	749.29	491.14	160.86	696.16	504.23	149.42	728.77	438.43	161	676.06	444.24	150.74	581.37	384.77	531.45	518.71	403.54	498.52	522.63	320.37	497.52	573.54	309.89	519.31	522.13	110.32	491.18	559.56	115.51	390.88	599.37	147.56	201.75	571.54	152.39	134.94	793.88	75.227	150.94	766.2	72.491	470.04	679.78	54.634	78.763	711.1	57.413	206.52	690.25	57.62	410.94	641.4	45.783	538.99	439.62	69.504	420.66	475.06	110.35	166.16	443.01	45.078	456.16	480.55	81.613	134.62	489.52	78.836	197.29	454.17	43.922	394.8
303	1.2594	590.96	1569.4	542.77	639.68	1586.6	122.58	696.42	1081.8	531.99	761.42	1068.8	177.97	506.2	1075.7	368.29	534.94	1089.8	242.2	632.59	967.87	554.65	712.79	977.99	122.04	636.94	1177	540.29	721.1	1171.6	136.31	506.58	1053.1	298.31	600.17	840.03	533.39	712.52	837.74	130.14	667.02	863.91	547.81	777.72	834.25	160.53	612.58	751.44	529.78	724.93	762.38	139.53	676.93	772.64	545.73	785.03	760.58	165.93	643.04	560.43	507.89	691.43	551.03	382.75	723.57	582.45	156.88	737.04	554.39	312.51	749.31	491.14	160.87	696.17	504.23	149.43	728.78	438.44	161	676.07	444.25	150.75	581.38	384.77	531.46	518.72	403.54	498.53	522.64	320.37	497.53	573.55	309.88	519.32	522.14	110.32	491.18	559.56	115.51	390.88	599.38	147.56	201.75	571.54	152.4	134.94	793.88	75.224	150.94	766.2	72.49	470.04	679.79	54.638	78.764	711.1	57.417	206.52	690.25	57.619	410.94	641.4	45.783	538.99	439.62	69.506	420.66	475.06	110.36	166.16	443.01	45.079	456.16	480.55	81.624	134.62	489.52	78.842	197.29	454.17	43.924	394.8
304	1.2636	590.99	1569.4	542.8	639.7	1586.6	122.61	696.45	1081.7	532	761.44	1068.8	177.99	506.22	1075.7	368.32	534.96	1089.8	242.22	632.62	967.87	554.67	712.8	978	122.06	636.98	1177	540.31	721.12	1171.6	136.33	506.59	1053.1	298.34	600.19	840.03	533.41	712.53	837.74	130.15	667.04	863.9	547.83	777.74	834.25	160.55	612.6	751.44	529.8	724.94	762.38	139.54	676.95	772.63	545.74	785.04	760.58	165.95	643.05	560.43	507.9	691.44	551.03	382.75	723.58	582.46	156.89	737.06	554.38	312.52	749.32	491.15	160.87	696.18	504.24	149.44	728.79	438.44	161.01	676.08	444.26	150.76	581.39	384.77	531.47	518.73	403.54	498.54	522.64	320.37	497.54	573.56	309.88	519.33	522.14	110.31	491.18	559.56	115.52	390.88	599.38	147.56	201.75	571.55	152.4	134.95	793.89	75.222	150.94	766.2	72.488	470.04	679.79	54.641	78.764	711.11	57.422	206.52	690.25	57.618	410.94	641.4	45.781	538.99	439.62	69.508	420.66	475.07	110.37	166.17	443.01	45.081	456.16	480.55	81.635	134.63	489.53	78.848	197.3	454.17	43.927	394.8
305	1.2677	591.02	1569.4	542.83	639.71	1586.6	122.64	696.48	1081.7	532.02	761.45	1068.8	178	506.24	1075.7	368.34	534.98	1089.8	242.24	632.64	967.87	554.69	712.81	978	122.07	637.02	1177	540.33	721.13	1171.6	136.35	506.61	1053.1	298.37	600.21	840.02	533.43	712.54	837.75	130.17	667.06	863.89	547.84	777.75	834.25	160.56	612.62	751.44	529.81	724.95	762.38	139.56	676.97	772.62	545.76	785.05	760.58	165.96	643.07	560.43	507.91	691.44	551.03	382.76	723.59	582.46	156.9	737.08	554.38	312.53	749.33	491.15	160.88	696.19	504.24	149.45	728.8	438.44	161.02	676.08	444.26	150.77	581.4	384.77	531.48	518.74	403.54	498.55	522.65	320.37	497.55	573.57	309.88	519.33	522.14	110.31	491.18	559.56	115.52	390.88	599.39	147.57	201.76	571.55	152.41	134.95	793.89	75.219	150.94	766.2	72.487	470.04	679.79	54.644	78.765	711.11	57.428	206.52	690.25	57.617	410.94	641.4	45.78	538.99	439.62	69.511	420.66	475.07	110.38	166.17	443.01	45.082	456.16	480.56	81.646	134.63	489.53	78.854	197.3	454.17	43.931	394.8
